<mxfile host="65bd71144e" scale="1.2" border="0">
    <diagram id="Aivqml-ADPJbA_GyeIOO" name="Page-1">
        <mxGraphModel dx="1135" dy="551" grid="1" gridSize="10" guides="1" tooltips="1" connect="1" arrows="1" fold="1" page="1" pageScale="1" pageWidth="827" pageHeight="1169" background="#FFFFFF" math="0" shadow="0">
            <root>
                <mxCell id="0"/>
                <mxCell id="1" parent="0"/>
                <mxCell id="76" value="" style="edgeStyle=none;rounded=0;orthogonalLoop=1;jettySize=auto;html=1;fillColor=#FFFFFF;strokeColor=#000000;fontColor=#000000;labelBackgroundColor=none;" edge="1" parent="1" source="77" target="79">
                    <mxGeometry relative="1" as="geometry"/>
                </mxCell>
                <mxCell id="77" value="start" style="ellipse;whiteSpace=wrap;html=1;fillColor=#E6FFCC;strokeColor=#000000;fontSize=11;fontColor=#000000;rounded=0;labelBackgroundColor=none;endArrow=classic;" vertex="1" parent="1">
                    <mxGeometry x="250" y="50" width="80" height="40" as="geometry"/>
                </mxCell>
                <mxCell id="78" value="" style="edgeStyle=none;rounded=0;orthogonalLoop=1;jettySize=auto;html=1;fillColor=#FFFFFF;strokeColor=#000000;fontColor=#000000;labelBackgroundColor=none;" edge="1" parent="1" source="79" target="82">
                    <mxGeometry relative="1" as="geometry"/>
                </mxCell>
                <mxCell id="79" value="n = 6&lt;br&gt;arr[n]&lt;br&gt;len = Length(arr)" style="rounded=0;whiteSpace=wrap;html=1;fontSize=11;fillColor=#FFFFFF;strokeColor=#000000;fontColor=#000000;labelBackgroundColor=none;endArrow=classic;" vertex="1" parent="1">
                    <mxGeometry x="230" y="120" width="120" height="50" as="geometry"/>
                </mxCell>
                <mxCell id="80" value="" style="edgeStyle=none;rounded=0;orthogonalLoop=1;jettySize=auto;html=1;fillColor=#FFFFFF;strokeColor=#000000;fontColor=#000000;labelBackgroundColor=none;" edge="1" parent="1" source="82" target="84">
                    <mxGeometry relative="1" as="geometry"/>
                </mxCell>
                <mxCell id="81" style="edgeStyle=none;rounded=0;orthogonalLoop=1;jettySize=auto;html=1;exitX=1;exitY=0.5;exitDx=0;exitDy=0;fillColor=#FFFFFF;strokeColor=#000000;fontColor=#000000;labelBackgroundColor=none;" edge="1" parent="1" source="82" target="96">
                    <mxGeometry relative="1" as="geometry">
                        <mxPoint x="465" y="260" as="targetPoint"/>
                        <Array as="points">
                            <mxPoint x="470" y="225"/>
                        </Array>
                    </mxGeometry>
                </mxCell>
                <mxCell id="82" value="i = 0, len -1, 1" style="shape=hexagon;perimeter=hexagonPerimeter2;whiteSpace=wrap;html=1;fixedSize=1;fontSize=11;fillColor=#FFFFFF;strokeColor=#000000;fontColor=#000000;rounded=0;labelBackgroundColor=none;endArrow=classic;" vertex="1" parent="1">
                    <mxGeometry x="210" y="200" width="160" height="50" as="geometry"/>
                </mxCell>
                <mxCell id="83" style="edgeStyle=none;rounded=0;orthogonalLoop=1;jettySize=auto;html=1;exitX=0.5;exitY=1;exitDx=0;exitDy=0;entryX=0;entryY=0.5;entryDx=0;entryDy=0;fillColor=#FFFFFF;strokeColor=#000000;fontColor=#000000;labelBackgroundColor=none;" edge="1" parent="1" source="84" target="82">
                    <mxGeometry relative="1" as="geometry">
                        <Array as="points">
                            <mxPoint x="290" y="370"/>
                            <mxPoint x="170" y="370"/>
                            <mxPoint x="170" y="225"/>
                        </Array>
                    </mxGeometry>
                </mxCell>
                <mxCell id="84" value="arr[i] = Random [10, 99]" style="whiteSpace=wrap;html=1;fontSize=11;fillColor=#FFFFFF;strokeColor=#000000;fontColor=#000000;rounded=0;labelBackgroundColor=none;endArrow=classic;" vertex="1" parent="1">
                    <mxGeometry x="200" y="280" width="180" height="60" as="geometry"/>
                </mxCell>
                <mxCell id="85" value="" style="edgeStyle=none;rounded=0;orthogonalLoop=1;jettySize=auto;html=1;fillColor=#FFFFFF;strokeColor=#000000;fontColor=#000000;labelBackgroundColor=none;" edge="1" parent="1" source="86" target="92">
                    <mxGeometry relative="1" as="geometry"/>
                </mxCell>
                <mxCell id="86" value="&lt;span&gt;i = 0, len -1, 1&lt;/span&gt;" style="shape=hexagon;perimeter=hexagonPerimeter2;whiteSpace=wrap;html=1;fixedSize=1;fontSize=11;fillColor=#FFFFFF;strokeColor=#000000;fontColor=#000000;rounded=0;labelBackgroundColor=none;endArrow=classic;" vertex="1" parent="1">
                    <mxGeometry x="400" y="340" width="140" height="50" as="geometry"/>
                </mxCell>
                <mxCell id="87" value="" style="edgeStyle=none;rounded=0;orthogonalLoop=1;jettySize=auto;html=1;fillColor=#FFFFFF;strokeColor=#000000;fontColor=#000000;labelBackgroundColor=none;" edge="1" parent="1" source="92" target="94">
                    <mxGeometry relative="1" as="geometry"/>
                </mxCell>
                <mxCell id="88" value="YES" style="edgeLabel;html=1;align=center;verticalAlign=middle;resizable=0;points=[];labelBackgroundColor=#FFFFFF;fontColor=#000000;" connectable="0" vertex="1" parent="87">
                    <mxGeometry x="-0.5152" relative="1" as="geometry">
                        <mxPoint y="3" as="offset"/>
                    </mxGeometry>
                </mxCell>
                <mxCell id="89" style="edgeStyle=none;rounded=0;orthogonalLoop=1;jettySize=auto;html=1;exitX=1;exitY=0.5;exitDx=0;exitDy=0;entryX=0.5;entryY=0;entryDx=0;entryDy=0;fillColor=#FFFFFF;strokeColor=#000000;fontColor=#000000;labelBackgroundColor=none;" edge="1" parent="1" source="86" target="98">
                    <mxGeometry relative="1" as="geometry">
                        <Array as="points">
                            <mxPoint x="640" y="365"/>
                            <mxPoint x="640" y="440"/>
                        </Array>
                    </mxGeometry>
                </mxCell>
                <mxCell id="90" style="edgeStyle=none;rounded=0;orthogonalLoop=1;jettySize=auto;html=1;exitX=1;exitY=0.5;exitDx=0;exitDy=0;endArrow=oval;endFill=1;fillColor=#FFFFFF;strokeColor=#000000;fontColor=#000000;labelBackgroundColor=none;" edge="1" parent="1" source="92">
                    <mxGeometry relative="1" as="geometry">
                        <mxPoint x="470" y="560" as="targetPoint"/>
                        <Array as="points">
                            <mxPoint x="560" y="440"/>
                            <mxPoint x="560" y="560"/>
                        </Array>
                    </mxGeometry>
                </mxCell>
                <mxCell id="91" value="NO" style="edgeLabel;html=1;align=center;verticalAlign=middle;resizable=0;points=[];labelBackgroundColor=#FFFFFF;fontColor=#000000;" connectable="0" vertex="1" parent="90">
                    <mxGeometry x="-0.9487" y="-2" relative="1" as="geometry">
                        <mxPoint x="4" y="-2" as="offset"/>
                    </mxGeometry>
                </mxCell>
                <mxCell id="92" value="&amp;nbsp;i%2 == 0" style="rhombus;whiteSpace=wrap;html=1;fontSize=11;fillColor=#FFFFFF;strokeColor=#000000;fontColor=#000000;rounded=0;labelBackgroundColor=none;endArrow=classic;" vertex="1" parent="1">
                    <mxGeometry x="404" y="410" width="132" height="60" as="geometry"/>
                </mxCell>
                <mxCell id="93" style="edgeStyle=none;rounded=0;orthogonalLoop=1;jettySize=auto;html=1;entryX=0;entryY=0.5;entryDx=0;entryDy=0;exitX=0.5;exitY=1;exitDx=0;exitDy=0;fillColor=#FFFFFF;strokeColor=#000000;fontColor=#000000;labelBackgroundColor=none;" edge="1" parent="1" source="94" target="86">
                    <mxGeometry relative="1" as="geometry">
                        <Array as="points">
                            <mxPoint x="470" y="560"/>
                            <mxPoint x="370" y="560"/>
                            <mxPoint x="370" y="365"/>
                        </Array>
                    </mxGeometry>
                </mxCell>
                <mxCell id="94" value="sum = sum +1" style="whiteSpace=wrap;html=1;fontSize=11;fillColor=#FFFFFF;strokeColor=#000000;fontColor=#000000;rounded=0;labelBackgroundColor=none;endArrow=classic;" vertex="1" parent="1">
                    <mxGeometry x="410" y="500" width="120" height="40" as="geometry"/>
                </mxCell>
                <mxCell id="95" value="" style="edgeStyle=none;rounded=0;orthogonalLoop=1;jettySize=auto;html=1;entryX=0.5;entryY=0;entryDx=0;entryDy=0;fillColor=#FFFFFF;strokeColor=#000000;fontColor=#000000;labelBackgroundColor=none;" edge="1" parent="1" source="96" target="86">
                    <mxGeometry relative="1" as="geometry"/>
                </mxCell>
                <mxCell id="96" value="sum = 0" style="rounded=0;whiteSpace=wrap;html=1;fontSize=11;fillColor=#FFFFFF;strokeColor=#000000;fontColor=#000000;labelBackgroundColor=none;endArrow=classic;" vertex="1" parent="1">
                    <mxGeometry x="410" y="270" width="120" height="30" as="geometry"/>
                </mxCell>
                <mxCell id="97" value="" style="edgeStyle=none;rounded=0;orthogonalLoop=1;jettySize=auto;html=1;exitX=0.492;exitY=0.839;exitDx=0;exitDy=0;exitPerimeter=0;fillColor=#FFFFFF;strokeColor=#000000;fontColor=#000000;labelBackgroundColor=none;" edge="1" parent="1" source="98" target="99">
                    <mxGeometry relative="1" as="geometry"/>
                </mxCell>
                <mxCell id="98" value="arr&lt;br&gt;sum" style="shape=document;whiteSpace=wrap;html=1;boundedLbl=1;fillColor=#FFFFCC;strokeColor=#000000;fontSize=11;fontColor=#000000;rounded=0;labelBackgroundColor=none;endArrow=classic;" vertex="1" parent="1">
                    <mxGeometry x="580" y="390" width="120" height="60" as="geometry"/>
                </mxCell>
                <mxCell id="99" value="end" style="ellipse;whiteSpace=wrap;html=1;fillColor=#E6FFCC;strokeColor=#000000;fontSize=11;fontColor=#000000;rounded=0;labelBackgroundColor=none;endArrow=classic;" vertex="1" parent="1">
                    <mxGeometry x="600" y="490" width="80" height="40" as="geometry"/>
                </mxCell>
            </root>
        </mxGraphModel>
    </diagram>
</mxfile>